<?xml version="1.0" encoding="UTF-8"?>
<svg id="Layer_1" xmlns="http://www.w3.org/2000/svg" version="1.1" viewBox="0 0 400 400">
  <!-- Generator: Adobe Illustrator 30.3.0, SVG Export Plug-In . SVG Version: 2.1.3 Build 182)  -->
  <g id="Telephone_Icon">
    <g id="Layer_1-2">
      <path d="M170.02,78.98c-.75-3.48-.18-3.85,5.79-3.83,3.64.01,7.63.67,8.88,1.46,2.02,1.28,11.5,42.43,13.58,58.97.76,6.05.44,6.6-5.32,9-3.37,1.41-6.73,2.56-7.47,2.56s-4.33-14.47-7.99-32.15c-3.65-17.68-7.01-33.89-7.47-36.01h0ZM253.43,296.05c-4.34-5.04-14.99-17.48-23.67-27.65l-15.79-18.47-7.12,6.78c-8.37,7.95-7.93,8.29-16.3-12.69-8.98-22.54-31.27-89.36-31.27-93.77,0-.77,4.69-1.4,10.43-1.4h10.42l-1.11-5.57c-1.39-7.01-5.55-26.4-8.56-39.87-1.26-5.66-2.82-13.56-3.46-17.57-.64-4-1.68-7.6-2.31-7.99-2.28-1.41-19.21,2.63-28.07,6.7-17.1,7.85-15.93,4.27-15.91,48.51.01,31.59.61,41.52,3.16,52.65,11.16,48.67,33.85,91.86,63.13,120.18,15.96,15.44,21.85,19.82,25.27,18.83,1.5-.43,5.82-1.33,9.59-2.01,9.99-1.75,40.64-14.35,39.87-16.37-.24-.63-3.98-5.25-8.3-10.3h0ZM236.06,241.19c-1.88-1.67-4.67-2.44-6.85-1.86-4.09,1.06-9.92,5.57-9.92,7.65,0,.74,7.14,9.69,15.86,19.85,8.72,10.18,19.24,22.52,23.35,27.42,4.13,4.92,8.45,8.92,9.62,8.92s4.14-1.9,6.63-4.21c2.51-2.3,4.55-4.93,4.55-5.83,0-1.72-37.72-47.02-43.25-51.94h.01Z" fill="#010101"/>
    </g>
  </g>
  <g>
    <rect x="238.31" y="130.13" width="21.95" height="71.08" fill="#010101"/>
    <rect x="213.75" y="154.7" width="71.08" height="21.95" fill="#010101"/>
  </g>
</svg>